<svg width="24" height="24" viewBox="0 0 24 24" fill="none" xmlns="http://www.w3.org/2000/svg">
<g clip-path="url(#clip0_23_16158)">
<path d="M22.2384 24.0001C21.9579 24.0001 21.6768 23.9348 21.4169 23.8041L8.77029 17.4941C8.19497 17.2068 7.97143 16.5281 8.27177 15.9775C8.57211 15.4268 9.28114 15.2135 9.85714 15.5001L21.6507 21.3848V2.61946L3.024 12.0001L3.96343 12.4735C4.53737 12.7628 4.75817 13.4428 4.45577 13.9921C4.15337 14.5415 3.44297 14.7528 2.86903 14.4635L0.941486 13.4928C0.360686 13.2001 0 12.6281 0 12.0001C0 11.3721 0.360686 10.8001 0.941486 10.5081L21.4169 0.196123C21.9682 -0.0812108 22.6155 -0.0632108 23.1483 0.244789C23.6818 0.552789 24 1.09279 24 1.68879V22.3121C24 22.9081 23.6818 23.4475 23.1483 23.7555C22.8665 23.9181 22.5531 24.0001 22.2384 24.0001ZM22.5031 21.8108L22.5072 21.8128C22.5072 21.8128 22.5045 21.8115 22.5031 21.8108Z" fill="white"/>
</g>
<defs>
<clipPath id="clip0_23_16158">
<rect width="24" height="24" fill="white"/>
</clipPath>
</defs>
</svg>
