<svg width="200" height="74" viewBox="0 0 200 74" fill="none" xmlns="http://www.w3.org/2000/svg">
<g clip-path="url(#clip0_2_111)">
<path d="M0 27.1809L8.90538 42.2459L12.4675 38.8321L2.74583 24.3609L0 27.1809Z" fill="url(#paint0_linear_2_111)"/>
<path d="M132.542 15.3071L132.171 17.3108L136.401 15.9008L135.881 13.4518L132.542 15.3071Z" fill="#0071B9"/>
<path d="M107.607 1.7264L93.8776 17.4592L97.885 16.3461L110.946 0.0195312L107.607 1.7264Z" fill="url(#paint1_linear_2_111)"/>
<path d="M181.15 23.2477L184.49 21.4666L183.525 29.9267L181.15 23.2477Z" fill="#1D2C5E"/>
<path d="M160.148 28.6652L163.191 29.3331L166.976 27.4778L163.636 26.2162L160.148 28.6652Z" fill="#1D2C5E"/>
<path d="M56.846 19.7598L57.2913 29.4815L61.5213 27.8488L60.2597 17.9045L56.846 19.7598Z" fill="url(#paint2_linear_2_111)"/>
<path d="M163.414 16.7913L160.074 18.6466L160.148 28.6652L163.562 26.9583L164.601 22.0603L163.414 16.7913Z" fill="url(#paint3_linear_2_111)"/>
<path d="M162.968 29.3331L159.258 62.283L165.195 61.0956L166.308 27.552L162.968 29.3331Z" fill="#312370"/>
<path d="M170.167 63.8414L170.315 68.2941L181.67 71.9305L185.083 70.1494L173.878 61.4666L162.597 60.5019L159.258 62.283L170.167 63.8414Z" fill="#21386E"/>
<path d="M128.015 55.975L130.761 54.4908L132.616 57.7561L135.213 56.346L135.733 60.6503L152.282 63.6188L155.547 61.7635L132.764 47.8859L116.586 50.6317L113.469 53.6744L128.015 55.975Z" fill="#21386E"/>
<path d="M122.746 15.4555L119.406 17.3108L113.469 53.6744L116.809 51.8934L122.523 31.4852L122.746 15.4555Z" fill="url(#paint4_linear_2_111)"/>
<path d="M96.3265 20.3535L93.6549 21.7635L93.8775 22.654L100.186 18.6466L97.4397 15.6782L93.8775 17.4592L96.3265 20.3535Z" fill="#1D2C5E"/>
<path d="M103.525 63.3219L76.5863 49.9639L79.9258 47.3665L106.865 61.4666L103.525 63.3219Z" fill="#21386E"/>
<path d="M79.1095 13.6002L75.0278 21.3182L79.3321 20.0566L82.449 11.7449L79.1095 13.6002Z" fill="#1D2C5E"/>
<path d="M42.0037 45.5854L38.59 47.9602C38.59 47.9602 39.3321 51.8192 40.2968 54.4908C41.2616 57.1624 43.4879 59.3145 43.4879 59.3145C44.9722 60.7245 46.679 61.7635 48.6827 62.3572C52.4675 63.4704 56.7718 62.7282 60.4824 60.3535C61.4471 59.7598 62.7829 58.795 63.5992 57.9787C59.9629 60.2051 42.0037 45.5854 42.0037 45.5854Z" fill="url(#paint5_linear_2_111)"/>
<path d="M60.4824 28.7394L63.5992 63.3961L76.512 61.5408L79.9258 59.7598L63.9703 26.6614L60.705 27.7746L57.2913 29.4815L60.4824 28.7394Z" fill="#1D2C5E"/>
<path d="M12.2449 40.7617L26.6419 73.3405L40.2969 68.962L43.6364 66.7357L15.2876 37.0511L11.7254 39.2032L8.9054 42.2459L12.2449 40.7617Z" fill="url(#paint6_linear_2_111)"/>
<path d="M154.657 56.1234L154.879 57.756C156.067 57.6076 157.254 57.4592 158.367 57.0881C159.629 56.6429 162.301 55.4555 163.265 54.5649C162.82 54.7134 156.586 56.346 154.657 56.1234Z" fill="#1D2C5E"/>
<path d="M106.345 47.8117L106.865 50.4091C109.61 49.9639 111.985 48.9991 114.36 47.5891C115.844 46.6986 117.403 45.437 117.922 45.0659C117.551 45.2886 106.345 47.8117 106.345 47.8117Z" fill="#1D2C5E"/>
<path d="M30.3889 70.234L29.3499 67.8592L15.695 37.4325L15.3981 36.8388L14.8045 37.1356L14.3592 37.3583L11.9102 38.5457C11.5391 37.952 10.9455 36.913 10.5744 36.2451L5.08275 26.9687L3.67273 24.5197L6.0475 23.0355C8.27384 21.6254 10.797 20.2896 13.6171 19.1022C19.1087 16.8017 24.6746 15.5401 29.7952 15.5401C31.502 15.5401 33.1347 15.6885 34.6189 15.9111C37.1421 16.208 39.5169 17.0243 41.4464 18.3601C44.3406 19.9928 46.6412 22.516 47.9028 25.4844C48.9417 27.9334 49.1644 30.8277 48.4965 33.7961L48.1254 35.5772L49.6096 34.5382C50.5744 33.7961 51.6134 33.2024 52.7265 32.7572C54.656 31.9408 56.6597 31.4956 58.6635 31.4956C60.5929 31.4956 62.374 31.8666 64.0067 32.6087L65.0456 33.054L64.9714 31.8666L64.5262 26.8945L64.452 26.0781L63.7098 26.3008L61.4093 26.8945L61.0382 18.4343L77.9584 13.0169L77.81 19.6217L79.0716 19.9186L82.7822 12.8685L93.8397 22.6644L94.285 23.1097L94.7302 22.6644C96.2145 21.2544 98.0698 20.067 100.073 19.2507L100.89 18.8796L100.296 18.1375L98.2924 15.6885L110.983 1.06885L117.662 11.0132L107.495 16.5048L105.268 17.6922L107.866 17.7664C112.689 17.8406 116.994 19.9186 119.888 23.4807L120.927 24.8165L121.595 25.6329L120.482 26.8202L119.74 27.6366L117.216 30.3824L116.771 30.9019L117.291 31.3471L119.665 33.4993L120.556 34.3156L120.778 33.1282L121.669 27.4881L121.892 26.0039L122.114 24.5197L123.45 16.1338H136.066L136.14 15.5401L136.363 14.1301H147.346L150.018 30.9019L150.166 32.015L151.057 31.3471C152.17 30.5308 153.357 29.9371 154.619 29.4176C156.326 28.7497 158.033 28.4529 159.814 28.4529C161.892 28.4529 163.895 28.8982 165.602 29.8629C165.676 29.8629 165.676 29.9371 165.825 30.0113L166.641 30.3082L166.715 29.4176L166.938 27.5624L167.012 26.9687L166.419 26.8202L164.192 26.3008L164.118 17.5438L181.112 21.2544L182.374 27.5624H183.71L185.046 22.1449L199.22 25.5586L184.675 69.2692L174.359 66.0039L174.285 61.9965V61.4028L173.691 61.3286L163.376 59.8444L163.97 54.5753L164.118 53.3137L163.005 53.9074C162.485 54.2043 161.966 54.4269 161.446 54.5753C159.74 55.2432 158.033 55.5401 156.326 55.5401C155.806 55.5401 155.361 55.5401 154.842 55.4659L153.951 55.3917L154.099 56.2822L154.842 60.8833L139.777 58.2117L138.96 51.3842L138.738 49.1579L137.699 51.0874L135.992 54.4269L132.801 48.5642L131.836 46.7831L131.539 48.7868L130.871 53.3137L117.662 51.2358L118.701 45.0021L118.923 43.592L117.662 44.3342C115.509 45.5958 112.986 46.6347 110.092 47.3026C109.053 47.5252 108.014 47.7479 106.901 47.8221L106.307 47.8963V60.3638L80.3332 47.5252L79.3685 47.08V59.1765L67.7173 60.8833L67.1978 55.6143L67.0494 54.2043L66.0104 55.169C64.452 56.6533 62.7451 57.8406 60.8898 58.657C58.9603 59.4733 56.9566 59.9186 55.0271 59.9186C53.0234 59.9186 51.1681 59.4733 49.4612 58.7312C46.3443 57.247 44.0438 54.5011 43.079 51.0132C42.6338 49.3805 42.4853 47.6737 42.708 45.8926L42.9306 44.0373L41.5948 45.3731C40.6301 46.2637 39.5911 47.1542 38.4779 47.9705L38.1069 48.2674L38.2553 48.7126L42.1885 63.7034L42.8564 66.375L40.259 67.1913L32.9121 69.5661L30.3889 70.234ZM33.6542 29.9371C33.2831 29.9371 32.9121 29.9371 32.4668 30.0113L31.9473 30.0855L31.2052 30.234L31.4278 30.9761L31.5763 31.4214L33.6542 38.323L33.8768 38.9909L34.1737 39.9557L34.9158 39.2878L35.4353 38.8425C37.5132 36.9872 38.1811 35.1319 37.7358 32.7572C37.439 31.3471 36.4 30.6792 35.7321 30.3824C35.2868 30.0855 34.4705 29.9371 33.6542 29.9371ZM90.2033 30.1598L88.8675 31.4214L85.3796 34.7609L84.6375 35.503L85.6022 35.874L89.3128 37.2841L90.426 37.7293L90.2033 36.5419C89.9065 34.9835 89.8323 33.4251 89.9807 31.9408L90.2033 30.1598ZM105.342 26.3008C103.932 26.3008 102.522 26.8945 101.558 28.0076C100.073 29.6403 99.7766 32.0893 100.816 34.0188L101.112 34.5382L101.558 35.3546L102.226 34.6124L102.671 34.1672L107.791 28.3787L108.163 27.9334L108.83 27.1913L107.94 26.8202L107.346 26.5976C106.604 26.4492 106.01 26.3008 105.342 26.3008Z" fill="#FFCB05"/>
<path d="M113.098 34.8989L112.95 35.0473C113.024 35.0473 113.098 34.9731 113.098 34.8989Z" fill="#7D7F68"/>
<path d="M117.551 30.8915L120.074 28.1457L119.184 29.0362V28.962L118.442 29.7783L115.918 32.45L118.293 34.6021L118.738 31.9305L119.926 32.9694L117.551 30.8915Z" fill="#7D7F68"/>
<path d="M117.551 30.8915L119.926 32.9694L120.816 27.3293L120.074 28.1457L117.551 30.8915Z" fill="#7D7F68"/>
<path d="M99.9629 37.6448C100.186 37.8674 99.9629 37.719 100.186 37.8674L101.744 36.7542C101.521 36.6058 101.299 36.3832 101.076 36.2348C98.8497 34.1568 99.4434 29.5557 100.853 27.0325C96.9944 30.1494 97.2171 34.899 99.9629 37.6448Z" fill="#C7A008"/>
<path d="M118.738 40.2421C116.141 42.3943 113.247 43.7301 109.388 44.6948C108.571 44.9174 107.681 45.0659 106.939 45.0659C100.779 45.6596 95.6586 42.8395 93.7291 38.3126C93.5065 37.7931 93.2839 37.1995 93.1354 36.6058C92.2449 32.7468 92.987 29.333 94.9165 26.5872C95.1392 26.2904 95.2876 26.0677 95.5102 25.8451C95.436 25.9193 95.2876 25.9935 95.2134 26.0677C94.4713 26.7356 93.8033 27.4035 93.2839 28.2199C91.3544 30.8915 90.6123 34.3794 91.5028 38.2384C91.6512 38.8321 91.7996 39.4258 92.0965 39.9453C94.026 44.5464 99.2208 47.3664 105.306 46.7727C106.122 46.6985 106.939 46.5501 107.829 46.3275C111.688 45.3627 114.657 44.0269 117.18 41.8748C117.774 41.3553 118.442 40.7616 119.035 40.1679L118.961 40.0937C118.813 40.1679 118.738 40.1679 118.738 40.2421Z" fill="#C7A008"/>
<path d="M75.4731 28.591L82.3005 18.9435L82.0037 18.7208L75.3989 27.9973L75.4731 28.591Z" fill="#C7A008"/>
<path d="M120.816 27.3293L119.926 32.9694L118.738 31.9305L118.293 34.6021L115.918 32.4499L118.442 29.7783L119.184 28.962V29.0362L120.074 28.1457L120.816 27.3293Z" fill="#C7A008"/>
<path d="M112.356 11.4481L114.731 10.4091L110.353 4.76904L108.943 6.84696L112.356 11.4481Z" fill="#C7A008"/>
<path d="M45.8627 25.3998C34.731 11.8933 14.7681 19.1661 7.6438 25.474L7.94064 25.9935C9.5733 25.0288 11.3544 24.2124 13.1355 23.3961C20.2598 20.3535 27.0872 19.4629 32.5047 20.4277C34.4342 20.6503 36.4379 21.244 38.2189 22.4314C40.6679 23.8414 42.5232 25.7709 43.6364 28.2941C45.5659 32.7468 43.859 38.6837 39.3321 43.5817C45.0464 38.3126 48.9796 33.2663 45.8627 25.3998Z" fill="#C7A008"/>
<path d="M68.4972 41.1327C68.423 40.9101 68.423 40.6132 68.3488 40.3906C67.7551 38.1643 66.4193 36.3832 64.6382 35.1958C61.8182 33.2663 57.8107 32.8952 53.8775 34.5279C51.7996 35.4184 50.0185 36.8285 48.5343 38.4611C49.6475 37.4964 50.9091 36.7542 52.2449 36.1606C56.1781 34.4537 60.1855 34.899 63.0055 36.8285C64.7866 38.0158 66.1224 39.7969 66.7161 42.0233C66.7903 42.2459 66.8645 42.5427 66.8645 42.7654C67.013 43.6559 67.0872 44.4722 67.0872 45.3628C67.013 47.9602 66.0482 50.5576 64.4898 52.7839C64.2671 53.155 63.9703 53.4518 63.6734 53.8229C64.564 53.0066 65.3803 52.1902 66.0482 51.2255C67.6809 48.9991 68.5714 46.4017 68.7198 43.8043C68.7198 42.9138 68.6456 42.0233 68.4972 41.1327Z" fill="#C7A008"/>
<path d="M57.5881 37.8674C57.5881 37.8674 59.2208 36.2348 59.1466 36.2348C57.1429 36.1605 56.2523 38.09 56.1781 38.2385C56.6234 38.0158 57.0686 37.9416 57.5881 37.8674Z" fill="#C7A008"/>
<path d="M61.3729 40.1679C61.4471 40.4648 61.5213 40.6874 61.5213 40.9843C61.5213 41.4295 61.4471 41.8006 61.2245 42.1716C61.5213 42.0232 63.8961 40.8358 63.0056 38.4611C63.0798 38.6095 61.2987 40.1679 61.3729 40.1679Z" fill="#C7A008"/>
<path d="M52.1707 41.578C52.1707 40.6132 53.8775 38.1642 54.397 37.3479C51.7254 39.0548 50.538 41.3553 50.538 43.1364C50.538 46.2533 53.2838 48.7765 56.5492 48.7765C58.1076 48.7765 60.9276 47.9601 62.7829 44.9917C61.8182 45.6596 59.3692 47.1438 58.0334 47.1438C54.7681 47.1438 52.1707 44.6948 52.1707 41.578Z" fill="#C7A008"/>
<path d="M75.1021 44.398L75.1763 56.9397L77.18 57.0881L76.7347 42.7653L75.1021 44.398Z" fill="#C7A008"/>
<path d="M63.6735 20.4277V21.5408L73.1725 18.7208L73.8404 30.8173L75.4731 28.5909L75.102 16.4944L63.6735 20.4277Z" fill="#C7A008"/>
<path d="M92.2449 24.7319L83.4137 16.5687L82.3005 18.9434L90.167 26.2904L92.2449 24.7319Z" fill="#C7A008"/>
<path d="M90.9091 39.9453L80.4453 36.4573L78.9611 38.09L89.3507 42.2458C90.5381 44.4722 92.3191 46.4017 94.5455 47.7375C96.6976 49.0733 99.2208 49.8896 101.818 50.1123V55.2328L103.451 56.0492L103.97 48.3312L90.9091 39.9453Z" fill="#C7A008"/>
<path d="M107.681 38.5353C110.278 37.9416 111.688 36.6058 113.024 35.1216C112.059 35.9379 107.31 36.9769 106.494 37.1995L104.935 38.9064C105.603 38.9064 106.79 38.7579 107.681 38.5353Z" fill="#C7A008"/>
<path d="M103.006 20.7245C98.256 21.3182 95.807 25.3256 95.436 25.7709C97.2171 24.2867 99.3692 23.1735 101.818 22.654C107.681 21.244 112.801 23.0251 115.993 26.9583L117.996 25.3256C114.805 21.4666 108.868 19.3145 103.006 20.7245Z" fill="#C7A008"/>
<path d="M118.887 40.0937C119.481 39.6484 120.445 39.129 121.039 38.5353L114.731 32.8952C114.212 33.4889 113.84 34.4536 113.247 34.8989L118.887 40.0937Z" fill="#C7A008"/>
<path d="M151.317 55.2329C144.712 49.7412 145.083 38.09 148.349 34.3794L145.455 16.0492L139.072 16.8655L138.776 18.4982H143.599L146.197 35.1215C142.931 38.8321 141.373 43.8043 142.412 48.4054C143.228 51.9676 145.455 54.7876 148.571 56.4203C148.868 56.5687 149.239 56.7171 149.536 56.8655L149.61 57.0882L151.54 57.385C151.466 57.4592 151.688 55.3813 151.317 55.2329Z" fill="#C7A008"/>
<path d="M125.863 18.7208L125.566 20.3535H132.839L134.991 32.1531L136.623 30.5204L134.917 18.0529L125.863 18.7208Z" fill="#C7A008"/>
<path d="M138.33 41.578L135.955 47.6633L136.549 49.296L139.889 40.0195L138.33 41.578Z" fill="#C7A008"/>
<path d="M131.354 37.7932L129.722 39.4258L127.941 50.4091L129.647 51.0028L131.354 37.7932Z" fill="#C7A008"/>
<path d="M164.082 34.231C165.046 34.8989 165.863 35.7895 166.456 36.8284C166.976 37.6448 167.273 38.4611 167.57 39.5C168.386 42.8396 167.421 46.4017 165.343 49.2218C165.121 49.5186 164.898 49.8154 164.675 50.0381C165.492 49.296 175.881 41.6522 165.788 31.6336C154.657 27.9973 150.427 35.1958 150.056 35.7153C151.243 34.7505 152.579 33.86 154.063 33.3405C157.774 31.8563 161.484 32.3757 164.082 34.231Z" fill="#C7A008"/>
<path d="M158.516 34.9731C158.516 35.0473 160.148 33.3405 160.148 33.3405C158.145 33.4147 157.18 34.3794 157.328 34.8247C157.18 34.9731 157.106 35.1957 157.032 35.3442C157.403 35.1215 158.219 34.9731 158.516 34.9731Z" fill="#C7A008"/>
<path d="M162.226 37.4964C162.301 37.7932 162.301 38.0158 162.301 38.3127C162.301 38.6837 162.152 39.0548 162.004 39.3516C162.301 39.2032 164.675 38.4611 163.785 35.7895C163.859 35.9379 162.152 37.4964 162.226 37.4964Z" fill="#C7A008"/>
<path d="M156.957 45.8822C159.184 45.9564 161.707 44.6206 163.488 42.1716C158.961 43.1364 154.137 35.4926 154.583 34.7505C152.876 36.0121 151.317 38.3869 151.243 40.0937C151.095 43.2106 153.692 45.7338 156.957 45.8822Z" fill="#C7A008"/>
<path d="M181.967 65.6967L183.006 66.3646L196.067 27.1809L186.271 24.9546L186.197 27.2551L194.063 28.962L181.967 65.6967Z" fill="#C7A008"/>
<path d="M166.456 20.7245L166.531 22.9509L176.92 25.0288L180.928 44.027L182.56 42.3943L178.701 23.1735L166.456 20.7245Z" fill="#C7A008"/>
<path d="M174.471 42.3943L171.577 58.5724L173.21 59.0919L176.104 40.7617L174.471 42.3943Z" fill="#C7A008"/>
<path d="M39.6289 64.5093L34.8052 46.847L33.0241 48.1086L37.551 64.9546L39.6289 64.5093Z" fill="#C7A008"/>
<path d="M38.3674 38.0158C37.2542 39.2032 34.731 41.5038 33.321 42.3943L32.4304 39.6485L30.5751 33.5631L29.3878 29.4815L28.2004 30.9657L29.3878 35.0474L31.243 41.0585L32.1336 43.8043C34.1373 42.6912 36.9573 40.3164 38.3674 38.0158Z" fill="#C7A008"/>
<path d="M107.236 27.552C105.677 26.9583 103.525 27.1067 102.338 28.4425C102.041 28.7394 101.521 29.4815 101.373 29.8525C102.486 28.962 104.564 28.7394 105.826 29.2588L107.236 27.552Z" fill="#7D7F68"/>
<path d="M37.0315 33.0436C36.8831 32.1531 35.9926 31.411 35.5473 31.1883C34.8052 30.8173 33.3952 30.7431 32.4304 30.9657C32.5788 31.5594 32.8015 32.3015 32.8757 32.5983C33.2467 32.6726 33.9147 32.7468 34.2857 32.8952C34.731 33.1178 35.4731 33.5631 35.6215 34.5278C35.8441 35.7152 35.7699 36.9026 35.2505 37.7931C36.6605 36.4573 37.3284 34.9731 37.0315 33.0436Z" fill="#7D7F68"/>
<path d="M39.4427 32.9798C38.7748 29.4177 34.0995 27.414 29.4241 29.9371L30.6115 34.0188L32.4668 40.1041L33.3573 42.8499C36.8453 40.6978 40.3332 37.952 39.4427 32.9798ZM34.8416 38.5457C34.3221 36.913 33.2089 33.3509 33.2089 33.3509C33.2089 33.3509 32.9863 32.6088 32.6894 31.7182C33.6542 31.5698 34.6189 31.644 35.3611 32.0151C35.8063 32.2377 36.5484 32.683 36.6969 33.6477C37.1421 35.5772 36.4742 37.0615 34.8416 38.5457Z" fill="#3C5AA6"/>
<path d="M109.647 27.3398C107.049 24.965 103.042 25.1134 100.667 27.7108C98.2924 30.3082 98.4408 34.3156 101.038 36.6904C101.261 36.913 101.483 37.0615 101.706 37.2099L110.092 27.7108C109.944 27.6366 109.795 27.4882 109.647 27.3398ZM101.78 34.0188C100.964 32.5346 101.112 30.6051 102.374 29.2693C103.561 28.0077 105.342 27.6366 106.901 28.2303L101.78 34.0188Z" fill="#3567B0"/>
<path d="M120.816 26.2904L116.215 30.7431L120.594 34.6763L120.816 26.2904Z" fill="#1E2D5F"/>
<path d="M163.785 35.8636C163.859 36.1605 163.859 36.4573 163.859 36.7542C163.785 38.5353 162.152 39.8711 160.148 39.7969C158.145 39.7226 156.586 38.2384 156.661 36.4573C156.735 34.8247 158.219 33.4889 160 33.4147C159.629 33.3405 159.258 33.2662 158.887 33.2662C155.547 33.1178 152.876 35.4926 152.727 38.3868C152.579 41.5037 155.102 44.1011 158.367 44.1753C161.707 44.3238 164.378 41.949 164.527 38.8321C164.75 37.7931 164.378 36.7542 163.785 35.8636Z" fill="#3466AF"/>
<path d="M63.154 39.4258C63.154 41.2069 61.5213 42.6169 59.5918 42.6169C57.5881 42.6169 56.0297 41.2069 56.0297 39.4258C56.0297 37.7932 57.4397 36.3832 59.295 36.2347C58.9239 36.1605 58.5529 36.1605 58.1818 36.1605C54.8423 36.1605 52.2449 38.6095 52.2449 41.578C52.2449 44.6948 54.8423 47.1438 58.1076 47.1438C61.4471 47.1438 64.0445 44.6948 64.0445 41.578C64.0445 40.4648 63.6734 39.5 63.0798 38.6095C63.0798 38.8321 63.154 39.129 63.154 39.4258Z" fill="url(#paint7_linear_2_111)"/>
<path d="M184.452 21.477L182.968 27.5624L181.632 20.8091L163.376 16.8017L163.524 26.9687L166.27 27.5624L166.048 29.4177C166.048 29.4177 165.973 29.4177 165.973 29.3435C162.56 27.5624 158.33 27.3397 154.396 28.8982C153.061 29.4177 151.799 30.0856 150.686 30.9019L147.94 13.5364H135.843L135.547 15.5401H122.782L121.298 24.4455L120.259 23.1097C117.142 19.3249 112.689 17.247 107.717 17.0986L118.552 11.3101L110.983 0.0299072L97.3277 15.7627L99.7024 18.657C97.5503 19.5475 95.695 20.7349 94.1366 22.2191L82.4112 11.8295L78.3295 19.6217L78.478 12.0522L60.1477 17.9149L60.6672 27.7108L63.7841 26.8945L64.2293 31.8666C60.6672 30.234 56.3629 30.3082 52.4297 32.0151C51.2423 32.5345 50.1292 33.1282 49.1644 33.8703C49.8323 30.8277 49.6839 27.8592 48.4965 25.1876C47.1607 22.0707 44.7117 19.3991 41.8175 17.7665C39.7395 16.3564 37.2906 15.5401 34.6932 15.2433C28.3852 14.1301 20.7414 15.2433 13.246 18.4344C10.5002 19.6217 7.90281 20.9576 5.60226 22.4418L2.70801 24.2971L4.48908 27.2655L9.98073 36.6162L11.6876 39.4362L14.6561 37.952L15.1013 37.7294L28.7562 68.1561L30.0921 71.0503L33.1347 70.0856L40.4817 67.7108L43.747 66.6718L42.9306 63.4065L38.9974 48.4158C40.1106 47.5995 41.1496 46.7089 42.1143 45.7442C41.8917 47.5253 42.0401 49.3806 42.4854 51.0874C43.5243 54.7238 45.8991 57.618 49.2386 59.1765C52.8008 60.8833 57.1793 60.8833 61.1867 59.1765C63.1904 58.2859 65.0457 57.0986 66.5299 55.5401L67.0494 61.5512L79.9622 59.6217V48.0448L106.901 61.4028V48.5642C108.014 48.49 109.053 48.2674 110.166 48.0448C113.135 47.3026 115.658 46.3379 117.958 45.0021L116.845 51.9037L131.391 54.2043L132.207 48.9353L135.992 55.9854L138.292 51.5327L139.109 58.8796L155.584 61.7739L154.693 56.208C156.919 56.4307 159.294 56.1338 161.595 55.3175C162.114 55.0948 162.708 54.8722 163.153 54.5754L162.485 60.5123L173.469 62.0707L173.543 66.5976L184.971 70.1598L199.888 25.2618L184.452 21.477ZM120.036 28.1561L120.779 27.3397L119.888 32.9798L117.513 30.8277L120.036 28.1561ZM110.389 5.00208L114.396 10.4195L102.968 16.0596L102.151 14.8722C102.151 14.9464 110.389 5.00208 110.389 5.00208ZM34.7674 46.8574L39.2943 64.3713L31.9473 66.746L16.8082 32.9056C15.9919 33.3509 14.4334 34.093 13.0976 34.7609L7.60597 25.4845C9.7581 24.0744 12.2071 22.887 14.7303 21.7739C21.8546 18.7312 28.682 17.8407 34.0995 18.8054C36.029 19.0281 38.0327 19.6217 39.8138 20.8091C42.2627 22.2191 44.118 24.1486 45.2312 26.6718C47.9028 32.7572 43.5243 41.5141 34.7674 46.8574ZM68.682 43.7405C68.6078 46.3379 67.6431 48.9353 66.0104 51.1616C64.452 53.3138 62.3741 55.0206 59.8509 56.1338C53.4687 58.8796 47.0865 56.1338 45.3796 50.0485C43.747 44.1858 47.606 37.2099 53.7655 34.5383C57.6987 32.8314 61.7062 33.2767 64.5262 35.2062C66.3073 36.3935 67.6431 38.1746 68.2368 40.401C68.311 40.6236 68.3852 40.9204 68.3852 41.1431C68.682 42.0336 68.682 42.9242 68.682 43.7405ZM103.487 56.1338L76.6969 42.7757L76.7711 56.8017L69.8694 57.7665L69.3499 51.978C71.5021 48.3416 72.2442 43.9631 71.131 40.0299C70.5373 37.8778 69.4241 35.9483 67.8657 34.464L66.901 22.6644L63.7841 23.4807L63.6357 20.5123L74.7674 17.1728L75.4353 28.6013L83.5985 17.0986L91.6876 24.7423L80.4817 36.542L91.0197 40.6978C92.2071 42.9242 93.9882 44.7794 96.2145 46.1895C98.3666 47.5253 100.89 48.3416 103.487 48.5642V56.1338ZM89.6097 36.6904L85.8991 35.2804L89.387 31.9409C89.1644 33.4993 89.2386 35.0577 89.6097 36.6904ZM118.701 40.2525C116.103 42.4047 113.209 43.7405 109.35 44.7052C108.534 44.9279 107.643 45.0763 106.901 45.0763C100.741 45.67 95.6208 42.8499 93.6913 38.323C93.4687 37.8036 93.246 37.2099 93.0976 36.6162C92.2071 32.7572 92.9492 29.3435 94.8787 26.5976C95.3982 25.7813 96.0661 25.1134 96.8082 24.4455C98.5893 22.8128 100.89 21.6997 103.487 21.0318C109.35 19.6217 114.471 21.4028 117.662 25.2618L106.53 37.1357C107.272 37.2841 108.459 37.0614 109.35 36.8388C112.022 36.1709 113.506 34.7609 114.767 33.2767L119.22 37.2841L120.556 38.4715C119.962 39.1394 119.368 39.7331 118.701 40.2525ZM142.374 56.0596L139.925 40.0299L136.511 48.8611L131.391 37.8036H131.317L129.313 50.6422L120.779 49.1579L121.966 42.0336C122.263 41.7368 122.634 41.4399 122.931 41.0689L125.676 38.2488L123.005 35.7999L125.899 18.7312H134.508L136.66 30.5308L139.109 16.8759H145.268L147.866 33.4993C144.6 37.2099 143.042 42.182 144.081 46.7831C144.897 50.3453 147.124 53.1653 150.24 54.8722C150.537 55.0206 150.908 55.1691 151.205 55.3175L151.502 57.4696L142.374 56.0596ZM163.673 50.7906C162.708 51.4585 161.669 52.0522 160.556 52.4232C158.33 53.2396 156.177 53.4622 154.174 53.0169C152.838 52.7201 151.576 52.2006 150.463 51.4585C148.756 50.1969 147.495 48.4158 146.901 46.1152C146.233 43.3694 146.827 40.401 148.311 37.8036C149.053 36.542 150.018 35.3546 151.131 34.3156C152.393 33.2024 153.877 32.2377 155.435 31.644C159.22 30.234 162.931 30.7535 165.528 32.6088C166.493 33.2767 167.309 34.1672 167.903 35.2062C168.348 36.0225 168.719 36.913 168.942 37.8778C169.758 41.2173 168.793 44.7794 166.715 47.5995C166.048 48.8611 164.934 49.9 163.673 50.7906ZM182.968 65.9297L176.66 64.0744L176.14 40.772L172.949 58.7312L166.048 57.618L166.567 52.4232C171.094 48.6384 173.469 42.6273 172.133 37.1357C171.539 34.7609 170.352 32.6088 168.571 31.0503L169.164 24.965L166.567 24.2971L166.641 21.0318L178.515 23.4065L182.522 42.3305L186.604 25.336L195.658 27.3397L182.968 65.9297Z" fill="url(#paint8_linear_2_111)"/>
<path d="M191.466 63.3219H191.763C192.134 63.3219 192.43 63.1735 192.43 62.8024C192.43 62.5798 192.208 62.2829 191.763 62.2829H191.466V63.3219ZM191.466 64.8803H191.02V62.0603C191.243 61.9861 191.466 61.9861 191.837 61.9861C192.282 61.9861 192.579 62.0603 192.727 62.2087C192.876 62.3572 193.024 62.5056 193.024 62.8024C193.024 63.1735 192.801 63.3961 192.505 63.4703C192.727 63.5445 192.95 63.7672 192.95 64.1382C193.024 64.5835 193.098 64.7319 193.098 64.8061H192.653C192.579 64.7319 192.505 64.4351 192.43 64.064C192.356 63.693 192.208 63.5445 191.837 63.5445H191.466V64.8803ZM191.985 61.244C190.872 61.244 189.981 62.2087 189.981 63.3961C189.981 64.5835 190.872 65.5483 192.059 65.5483C193.173 65.5483 194.063 64.5835 194.063 63.3961C193.989 62.2087 193.098 61.244 191.985 61.244ZM191.985 60.8729C193.395 60.8729 194.434 61.9861 194.434 63.3961C194.434 64.8061 193.321 65.9193 191.911 65.9193C190.501 65.9193 189.388 64.8061 189.388 63.3961C189.462 61.9861 190.575 60.8729 191.985 60.8729Z" fill="black"/>
</g>
<defs>
<linearGradient id="paint0_linear_2_111" x1="9.87013" y1="39.7405" x2="2.43562" y2="25.8867" gradientUnits="userSpaceOnUse">
<stop stop-color="#0070B6"/>
<stop offset="1" stop-color="#1D2C5E"/>
</linearGradient>
<linearGradient id="paint1_linear_2_111" x1="100.538" y1="11.4377" x2="109.974" y2="1.32714" gradientUnits="userSpaceOnUse">
<stop stop-color="#0070B6"/>
<stop offset="1" stop-color="#1D2C5E"/>
</linearGradient>
<linearGradient id="paint2_linear_2_111" x1="59.3707" y1="28.2941" x2="58.2456" y2="18.841" gradientUnits="userSpaceOnUse">
<stop stop-color="#0070B6"/>
<stop offset="1" stop-color="#1D2C5E"/>
</linearGradient>
<linearGradient id="paint3_linear_2_111" x1="162.446" y1="26.4744" x2="161.997" y2="17.9416" gradientUnits="userSpaceOnUse">
<stop stop-color="#125D9E"/>
<stop offset="1" stop-color="#1D2C5E"/>
</linearGradient>
<linearGradient id="paint4_linear_2_111" x1="130.954" y1="14.1754" x2="121.052" y2="29.929" gradientUnits="userSpaceOnUse">
<stop stop-color="#125D9E"/>
<stop offset="1" stop-color="#1D2C5E"/>
</linearGradient>
<linearGradient id="paint5_linear_2_111" x1="43.3172" y1="39.4429" x2="50.069" y2="52.7216" gradientUnits="userSpaceOnUse">
<stop stop-color="#105FA1"/>
<stop offset="1" stop-color="#1D2C5E"/>
</linearGradient>
<linearGradient id="paint6_linear_2_111" x1="17.8412" y1="34.9108" x2="25.6557" y2="53.0259" gradientUnits="userSpaceOnUse">
<stop stop-color="#105FA1"/>
<stop offset="1" stop-color="#1D2C5E"/>
</linearGradient>
<linearGradient id="paint7_linear_2_111" x1="52.1373" y1="41.6403" x2="63.9584" y2="41.6403" gradientUnits="userSpaceOnUse">
<stop stop-color="#3C5AA6"/>
<stop offset="0.933" stop-color="#2B73B9"/>
<stop offset="1" stop-color="#2A75BB"/>
</linearGradient>
<linearGradient id="paint8_linear_2_111" x1="2.76515" y1="35.5557" x2="199.977" y2="35.5557" gradientUnits="userSpaceOnUse">
<stop stop-color="#3C5AA6"/>
<stop offset="0.933" stop-color="#2B73B9"/>
<stop offset="1" stop-color="#2A75BB"/>
</linearGradient>
<clipPath id="clip0_2_111">
<rect width="200" height="73.36" fill="white"/>
</clipPath>
</defs>
</svg>
