<svg width="80" height="80" viewBox="0 0 80 80" fill="none" xmlns="http://www.w3.org/2000/svg">
<g clip-path="url(#clip0_3_122)">
<g clip-path="url(#clip1_3_122)">
<path d="M80 40H0C0 62.092 17.908 80 40 80C62.092 80 80 62.092 80 40Z" fill="white"/>
<path d="M46 79.554C44.042 79.848 42.04 80 40 80C17.908 80 0 62.092 0 40H12C12 60.052 26.754 76.658 46 79.554Z" fill="#DFDFDE"/>
<path d="M0 40H80C80 17.908 62.092 0 40 0C17.908 0 0 17.908 0 40Z" fill="#E62E2C"/>
<path d="M46 0.446C26.754 3.342 12 19.948 12 40H0C0 17.908 17.908 0 40 0C42.04 0 44.042 0.152 46 0.446Z" fill="#DF1C1B"/>
<path d="M40 50.6C45.8542 50.6 50.6 45.8542 50.6 40C50.6 34.1458 45.8542 29.4 40 29.4C34.1458 29.4 29.4 34.1458 29.4 40C29.4 45.8542 34.1458 50.6 40 50.6Z" fill="white"/>
<path d="M79.89 37C79.33 29.35 76.618 22.124 71.966 15.95C71.038 14.72 69.288 14.474 68.058 15.402C66.826 16.328 66.58 18.078 67.508 19.31C71.424 24.508 73.74 30.572 74.288 37H56.328C54.912 29.272 48.13 23.4 40 23.4C31.87 23.4 25.088 29.272 23.672 37H5.712C7.236 19.422 22.032 5.582 40 5.582C46.048 5.582 51.996 7.172 57.2 10.18C58.534 10.95 60.24 10.494 61.012 9.16C61.784 7.826 61.326 6.118 59.992 5.348C53.94 1.85 47.028 0 40 0C29.316 0 19.27 4.16 11.716 11.716C4.872 18.558 0.814 27.446 0.112 37C0.036 37.992 0 38.994 0 40C0 41.006 0.036 42.008 0.112 43C0.814 52.554 4.872 61.442 11.716 68.284C19.27 75.84 29.316 80 40 80C50.684 80 60.73 75.84 68.284 68.284C75.128 61.442 79.186 52.554 79.888 43C79.964 42.008 80 41.006 80 40C80 38.994 79.964 37.994 79.89 37ZM40 29.4C44.812 29.4 48.876 32.606 50.168 37C50.45 37.95 50.6 38.958 50.6 40C50.6 41.042 50.45 42.05 50.168 43C48.876 47.394 44.812 50.6 40 50.6C35.188 50.6 31.124 47.394 29.832 43C29.55 42.05 29.4 41.042 29.4 40C29.4 38.958 29.55 37.95 29.832 37C31.124 32.606 35.188 29.4 40 29.4ZM40 74.418C22.032 74.418 7.236 60.578 5.712 43H23.672C25.088 50.728 31.87 56.6 40 56.6C48.13 56.6 54.912 50.728 56.328 43H74.288C72.764 60.578 57.968 74.418 40 74.418Z" fill="black"/>
</g>
</g>
<defs>
<clipPath id="clip0_3_122">
<rect width="80" height="80" fill="white"/>
</clipPath>
<clipPath id="clip1_3_122">
<rect width="80" height="80" fill="white"/>
</clipPath>
</defs>
</svg>
