<svg width="80" height="80" viewBox="0 0 80 80" fill="none" xmlns="http://www.w3.org/2000/svg">
<g clip-path="url(#clip0_8_807)">
<path d="M76.8 40C76.8 42.278 76.054 44.53 74.388 46.694C72.632 48.972 70.07 51.046 66.77 52.856C62.518 55.19 57.406 56.896 51.806 57.888C50.828 58.062 49.836 58.214 48.83 58.342C48.964 58.876 49.034 59.432 49.034 60C49.034 60.462 48.988 60.912 48.9 61.352C48.158 65.068 44.42 67.9 39.934 67.9C35.448 67.9 31.698 65.058 30.964 61.336C30.878 60.9 30.834 60.456 30.834 60C30.834 59.426 30.904 58.866 31.042 58.326C30.036 58.196 29.044 58.042 28.068 57.866C22.518 56.87 17.45 55.172 13.23 52.856C9.93 51.046 7.368 48.972 5.612 46.694C3.946 44.53 3 42.278 3 40C3 32.034 13.218 25.028 27.168 22.308C29.03 27.132 34.078 30.6 40 30.6C45.922 30.6 50.946 27.15 52.818 22.344C66.672 25.09 76.8 32.07 76.8 40Z" fill="url(#paint0_radial_8_807)"/>
<path d="M72.952 52.402C67.84 66.984 53.93 77.444 37.572 77.444C17.364 77.444 0.88799 61.478 0.12799 41.496C0.11199 41.086 0.10399 40.674 0.10199 40.26C0.10399 40.322 0.10599 40.386 0.10799 40.448C0.11199 40.58 0.11999 40.712 0.12799 40.844C0.73799 50.272 12.206 58.182 27.878 60.92C28.398 66.5 33.604 70.9 39.934 70.9C46.264 70.9 51.456 66.514 51.986 60.944C60.604 59.458 67.958 56.408 72.952 52.402Z" fill="white"/>
<path d="M72.952 52.402C67.84 66.984 53.93 77.444 37.572 77.444C17.364 77.444 0.887991 61.478 0.127991 41.496C0.887991 62.862 18.448 79.95 40 79.95C61.552 79.95 79.9 62.086 79.9 40.05C79.9 44.632 77.336 48.886 72.952 52.402Z" fill="#DFDFDE"/>
<path d="M79.9 40C79.9 46.028 75.464 51.486 68.284 55.446C67.72 55.758 67.138 56.06 66.54 56.352C66.306 56.468 66.07 56.58 65.832 56.69C65.678 56.764 65.522 56.834 65.366 56.904C65.146 57.004 64.924 57.102 64.7 57.2C64.574 57.254 64.448 57.308 64.322 57.362C64.194 57.416 64.066 57.47 63.938 57.522C63.81 57.574 63.682 57.626 63.552 57.678C63.422 57.73 63.292 57.782 63.162 57.834C63.032 57.886 62.9 57.936 62.768 57.986C62.646 58.032 62.522 58.08 62.398 58.126C62.256 58.18 62.114 58.232 61.97 58.282C61.854 58.324 61.738 58.366 61.62 58.408C60.928 58.656 60.22 58.89 59.498 59.11C59.364 59.152 59.23 59.192 59.096 59.234C58.806 59.322 58.514 59.406 58.218 59.488C57.932 59.57 57.642 59.65 57.35 59.726C57.228 59.758 57.108 59.79 56.986 59.822C56.738 59.886 56.486 59.95 56.234 60.01C56.082 60.05 55.93 60.086 55.776 60.122C55.474 60.194 55.17 60.262 54.864 60.33C54.744 60.358 54.624 60.384 54.502 60.408C54.256 60.46 54.01 60.512 53.762 60.562C53.454 60.624 53.146 60.684 52.836 60.742C52.556 60.794 52.274 60.846 51.992 60.894C51.488 66.488 46.272 70.9 39.934 70.9C33.596 70.9 28.366 66.474 27.874 60.87C27.828 60.862 27.782 60.854 27.738 60.846C27.484 60.802 27.23 60.754 26.978 60.706C26.888 60.69 26.8 60.674 26.712 60.654C26.516 60.618 26.322 60.58 26.128 60.538C26.054 60.524 25.98 60.51 25.906 60.492C25.722 60.456 25.538 60.418 25.356 60.376C25.228 60.35 25.1 60.322 24.974 60.292C24.708 60.234 24.446 60.174 24.184 60.112C23.654 59.986 23.13 59.854 22.612 59.716C22.35 59.646 22.09 59.576 21.83 59.502C21.782 59.49 21.736 59.476 21.688 59.462C21.468 59.4 21.248 59.336 21.03 59.27C21.004 59.264 20.978 59.256 20.954 59.248C20.692 59.17 20.432 59.09 20.172 59.008C19.98 58.948 19.788 58.886 19.596 58.822C19.474 58.784 19.352 58.744 19.23 58.702C19.02 58.632 18.81 58.56 18.602 58.488C18.37 58.406 18.138 58.324 17.908 58.24C17.696 58.162 17.486 58.084 17.278 58.004C17.164 57.962 17.052 57.918 16.94 57.874C16.772 57.808 16.604 57.742 16.436 57.674C16.38 57.652 16.322 57.63 16.266 57.606C16.118 57.546 15.97 57.484 15.822 57.422C15.714 57.378 15.606 57.332 15.498 57.286C15.11 57.12 14.73 56.952 14.354 56.778C14.334 56.77 14.314 56.76 14.294 56.75C14.166 56.692 14.038 56.632 13.912 56.57C13.6 56.424 13.292 56.274 12.99 56.118C12.874 56.062 12.762 56.004 12.648 55.944C12.432 55.834 12.218 55.72 12.008 55.606C11.844 55.518 11.682 55.43 11.522 55.34C11.202 55.162 10.888 54.98 10.58 54.794C10.482 54.736 10.384 54.676 10.288 54.618C10.08 54.492 9.87598 54.362 9.67198 54.232C9.49998 54.122 9.32998 54.012 9.16198 53.898C8.55798 53.494 7.97798 53.078 7.42598 52.652C7.33798 52.584 7.24998 52.514 7.16398 52.446C7.07798 52.378 6.99198 52.308 6.90598 52.238C6.82998 52.178 6.75598 52.116 6.68198 52.054C6.65798 52.036 6.63598 52.016 6.61398 51.998C6.47198 51.878 6.33198 51.76 6.19398 51.64C6.09998 51.558 6.00798 51.476 5.91598 51.392C5.83598 51.32 5.75798 51.248 5.67998 51.176C5.58198 51.088 5.48598 50.998 5.39198 50.908C5.26198 50.784 5.13398 50.66 5.00998 50.534C4.91598 50.442 4.82398 50.348 4.73398 50.254C4.67598 50.194 4.61998 50.134 4.56198 50.074C4.49198 50 4.42198 49.924 4.35198 49.85C4.00598 49.472 3.67998 49.09 3.37398 48.702C3.31998 48.634 3.26598 48.564 3.21198 48.496C2.96598 48.174 2.73198 47.85 2.51398 47.52C2.46198 47.44 2.40798 47.36 2.35798 47.28C2.25398 47.12 2.15398 46.958 2.05798 46.796C1.95998 46.632 1.86798 46.468 1.77798 46.304C1.73798 46.232 1.69798 46.158 1.65998 46.086C1.56198 45.9 1.46998 45.714 1.38198 45.528C1.31598 45.388 1.24998 45.246 1.18798 45.102C1.10998 44.92 1.03398 44.738 0.963976 44.554C0.937976 44.488 0.913976 44.422 0.889976 44.356C0.813976 44.154 0.745976 43.952 0.681976 43.748C0.659976 43.676 0.635976 43.602 0.615976 43.53C0.593976 43.454 0.571976 43.378 0.549976 43.302C0.535976 43.252 0.521976 43.2 0.509976 43.148C0.489976 43.078 0.471976 43.006 0.455976 42.934C0.397976 42.7 0.347976 42.464 0.303976 42.226C0.287976 42.138 0.271976 42.05 0.257976 41.962C0.245976 41.884 0.231976 41.804 0.221976 41.724C0.219976 41.716 0.219976 41.706 0.217976 41.698C0.139976 41.138 0.0999756 40.572 0.0999756 40H2.99998C2.99998 42.278 3.94598 44.53 5.61198 46.694C7.36798 48.972 9.92998 51.046 13.23 52.856C17.45 55.172 22.518 56.87 28.068 57.866C29.044 58.042 30.036 58.196 31.042 58.326C30.904 58.866 30.834 59.426 30.834 60C30.834 60.456 30.878 60.9 30.964 61.334C31.698 65.058 35.44 67.9 39.934 67.9C44.428 67.9 48.158 65.068 48.9 61.354C48.988 60.912 49.034 60.462 49.034 60C49.034 59.432 48.964 58.876 48.83 58.342C49.836 58.214 50.828 58.062 51.806 57.888C57.406 56.896 62.518 55.19 66.77 52.856C70.07 51.046 72.632 48.972 74.388 46.694C76.054 44.53 76.8 42.278 76.8 40H79.9Z" fill="#1D1D1B"/>
<path d="M79.9 40H76.8C76.8 32.07 66.672 25.09 52.818 22.344C50.946 27.15 45.906 30.6 40 30.6C34.094 30.6 29.03 27.132 27.168 22.308C13.218 25.028 2.99998 32.034 2.99998 40H0.0999756C0.0999756 39.926 0.0999756 39.852 0.101976 39.778C0.101976 39.758 0.101976 39.736 0.103976 39.716C0.103976 39.692 0.103976 39.668 0.105976 39.646C0.105976 39.616 0.105976 39.586 0.105976 39.556C0.107976 39.516 0.109976 39.474 0.111976 39.434C0.113976 39.374 0.115976 39.316 0.121976 39.256C0.121976 39.244 0.121976 39.23 0.123976 39.218C0.123976 39.198 0.125976 39.176 0.127976 39.154C0.133976 39.068 0.139976 38.98 0.147976 38.894C0.147976 38.89 0.147976 38.886 0.149976 38.882C0.149976 38.874 0.149976 38.866 0.151976 38.858C0.155976 38.798 0.163976 38.736 0.169976 38.676C0.173976 38.642 0.177976 38.608 0.181976 38.574C0.185976 38.534 0.189976 38.496 0.195976 38.456C0.199976 38.426 0.203976 38.394 0.207976 38.364C0.213976 38.322 0.219976 38.28 0.225976 38.238C0.231976 38.194 0.237976 38.148 0.245976 38.104C0.261976 37.998 0.279976 37.892 0.299976 37.786C0.299976 37.778 0.301976 37.768 0.303976 37.76C0.303976 37.75 0.307976 37.74 0.309976 37.73C0.317976 37.682 0.327976 37.636 0.337976 37.588C0.351976 37.516 0.365976 37.444 0.381976 37.372C0.383976 37.368 0.383976 37.362 0.385976 37.358C0.387976 37.344 0.391976 37.33 0.393976 37.316C0.405976 37.262 0.417976 37.21 0.431976 37.156C0.447976 37.082 0.465976 37.008 0.485976 36.936C0.503976 36.866 0.521976 36.796 0.539976 36.728C0.559976 36.656 0.579976 36.586 0.599976 36.516C0.623976 36.432 0.647976 36.35 0.673976 36.27C0.675976 36.264 0.677976 36.258 0.679976 36.254C0.693976 36.21 0.707976 36.166 0.721976 36.122C0.737976 36.068 0.755976 36.016 0.775976 35.962C0.817976 35.832 0.865976 35.702 0.913976 35.572C0.919976 35.556 0.925976 35.54 0.931976 35.524C0.957976 35.456 0.983976 35.388 1.01198 35.32C1.03998 35.248 1.06798 35.176 1.09798 35.106C1.14598 34.992 1.19398 34.878 1.24598 34.762C1.27598 34.696 1.30598 34.63 1.33598 34.564C1.34198 34.552 1.34798 34.538 1.35398 34.526C1.36198 34.51 1.36798 34.496 1.37598 34.48C1.38598 34.46 1.39398 34.442 1.40398 34.424C1.40798 34.414 1.41198 34.404 1.41798 34.396C1.44398 34.336 1.47398 34.278 1.50398 34.218C1.56998 34.082 1.63998 33.946 1.71398 33.81C1.72398 33.79 1.73398 33.77 1.74598 33.75C1.75598 33.732 1.76398 33.716 1.77598 33.698C1.78998 33.668 1.80798 33.638 1.82398 33.608C1.86998 33.526 1.91598 33.446 1.96198 33.364C2.02198 33.26 2.08198 33.158 2.14598 33.056C2.19598 32.972 2.24798 32.89 2.29998 32.806C2.38398 32.674 2.46998 32.542 2.55998 32.41C2.56998 32.392 2.58198 32.374 2.59598 32.358C2.62598 32.31 2.65798 32.264 2.68998 32.218C2.69798 32.206 2.70598 32.194 2.71598 32.182C2.76398 32.112 2.81398 32.04 2.86598 31.97C2.88398 31.944 2.90398 31.916 2.92398 31.89C2.95998 31.838 2.99798 31.786 3.03598 31.736C3.04598 31.724 3.05398 31.712 3.06398 31.7C3.13398 31.606 3.20598 31.512 3.27798 31.418C3.28998 31.4 3.30398 31.384 3.31798 31.368C3.39798 31.262 3.48398 31.158 3.56798 31.052C3.57798 31.042 3.58598 31.03 3.59598 31.018C3.66398 30.936 3.73198 30.854 3.80198 30.772C3.81998 30.752 3.83798 30.73 3.85398 30.71C3.87198 30.69 3.88998 30.67 3.90798 30.648C3.95598 30.594 4.00198 30.54 4.04998 30.486C4.08198 30.448 4.11598 30.41 4.14998 30.374C4.24198 30.27 4.33398 30.168 4.42998 30.066H4.43198C4.45598 30.038 4.47998 30.01 4.50598 29.984C4.55798 29.928 4.60998 29.874 4.66398 29.818C4.80398 29.67 4.94798 29.524 5.09598 29.378C5.15798 29.318 5.21798 29.258 5.28198 29.198C5.30798 29.172 5.33398 29.148 5.35998 29.122C5.38398 29.1 5.40798 29.076 5.43198 29.054C5.44398 29.042 5.45798 29.03 5.46998 29.018C5.54198 28.95 5.61398 28.882 5.68798 28.814C6.06598 28.466 6.45998 28.124 6.86998 27.79C6.92198 27.748 6.97198 27.706 7.02398 27.666C7.07598 27.622 7.12998 27.58 7.18398 27.538C7.27398 27.464 7.36598 27.394 7.45998 27.322C7.49798 27.292 7.53598 27.264 7.57398 27.234C7.69998 27.138 7.82798 27.042 7.95798 26.946C8.10798 26.836 8.25798 26.726 8.41198 26.618C8.71798 26.4 9.03198 26.186 9.35398 25.974C9.68198 25.758 10.016 25.546 10.358 25.338C10.5 25.252 10.642 25.166 10.788 25.082C10.81 25.068 10.832 25.054 10.854 25.044C11.018 24.946 11.186 24.85 11.354 24.754C11.384 24.736 11.416 24.718 11.448 24.7C11.594 24.618 11.742 24.536 11.892 24.456C12.032 24.378 12.174 24.302 12.318 24.228C12.392 24.188 12.466 24.148 12.54 24.112C12.684 24.036 12.83 23.96 12.978 23.886C13.166 23.79 13.358 23.696 13.55 23.602C13.732 23.514 13.916 23.426 14.102 23.34C14.292 23.25 14.484 23.162 14.678 23.074C14.864 22.99 15.05 22.908 15.24 22.826C15.474 22.722 15.712 22.622 15.95 22.524C16.118 22.454 16.288 22.384 16.46 22.316C16.476 22.308 16.494 22.302 16.512 22.294C16.67 22.23 16.83 22.168 16.99 22.106C17.222 22.016 17.456 21.926 17.692 21.84C17.9 21.762 18.108 21.686 18.32 21.612C18.486 21.552 18.654 21.494 18.824 21.436C18.896 21.41 18.97 21.384 19.046 21.36C19.23 21.296 19.416 21.236 19.602 21.174C19.78 21.116 19.958 21.058 20.138 21.002C20.416 20.914 20.696 20.828 20.98 20.744C21.18 20.684 21.382 20.626 21.582 20.568C21.816 20.5 22.052 20.434 22.292 20.37C22.508 20.312 22.724 20.254 22.942 20.198C23.17 20.138 23.4 20.08 23.632 20.022C23.856 19.968 24.08 19.912 24.306 19.86C24.358 19.846 24.414 19.834 24.468 19.822C24.89 19.724 25.316 19.63 25.744 19.54C25.922 19.502 26.1 19.466 26.28 19.43C26.34 19.416 26.402 19.404 26.462 19.394C26.948 19.298 27.438 19.208 27.934 19.12C28.426 19.036 28.924 18.954 29.424 18.878H29.428C29.44 19.03 29.456 19.182 29.476 19.332C29.528 19.708 29.604 20.076 29.702 20.438C30.238 22.384 31.458 24.094 33.124 25.354C33.864 25.914 34.692 26.386 35.588 26.75C35.604 26.756 35.62 26.764 35.636 26.77C35.77 26.824 35.904 26.874 36.042 26.922C36.118 26.95 36.194 26.976 36.272 27.002C36.438 27.058 36.606 27.11 36.776 27.158C36.844 27.176 36.91 27.194 36.978 27.212C37.042 27.23 37.106 27.246 37.17 27.262C37.204 27.27 37.24 27.278 37.274 27.286C37.336 27.302 37.398 27.316 37.462 27.328C37.538 27.346 37.616 27.362 37.694 27.378C37.874 27.412 38.058 27.444 38.242 27.472C38.312 27.482 38.382 27.492 38.454 27.5C38.706 27.534 38.96 27.558 39.218 27.574C39.304 27.58 39.39 27.586 39.476 27.588C39.502 27.59 39.528 27.59 39.554 27.592C39.702 27.598 39.85 27.6 39.998 27.6C40.146 27.6 40.294 27.598 40.442 27.592C40.468 27.592 40.494 27.592 40.52 27.588C40.606 27.586 40.692 27.58 40.778 27.574C41.036 27.558 41.29 27.534 41.542 27.5C41.614 27.492 41.684 27.482 41.754 27.472C41.938 27.444 42.122 27.412 42.302 27.378C42.38 27.362 42.458 27.346 42.534 27.328C42.598 27.316 42.66 27.302 42.722 27.286C42.756 27.278 42.792 27.27 42.826 27.262C42.89 27.246 42.954 27.23 43.018 27.212C43.086 27.194 43.152 27.176 43.22 27.158C43.39 27.11 43.558 27.058 43.724 27.002C43.802 26.976 43.878 26.95 43.954 26.922C44.092 26.874 44.226 26.822 44.36 26.77C44.376 26.764 44.392 26.756 44.408 26.75C45.304 26.386 46.132 25.914 46.872 25.354C48.538 24.094 49.758 22.384 50.294 20.438C50.392 20.076 50.468 19.708 50.52 19.332C50.54 19.182 50.556 19.03 50.568 18.878H50.572C51.072 18.954 51.57 19.036 52.062 19.12C52.558 19.208 53.048 19.298 53.534 19.394C53.594 19.404 53.656 19.416 53.716 19.43C53.896 19.466 54.074 19.502 54.252 19.54C54.68 19.63 55.106 19.724 55.528 19.822C55.582 19.834 55.638 19.846 55.69 19.86C55.916 19.912 56.14 19.968 56.364 20.022C56.596 20.08 56.826 20.138 57.054 20.198C57.272 20.254 57.488 20.312 57.704 20.37C57.944 20.434 58.18 20.5 58.414 20.568C58.614 20.626 58.816 20.684 59.016 20.744C59.3 20.828 59.58 20.914 59.858 21.002C60.038 21.058 60.216 21.116 60.394 21.174C60.58 21.236 60.766 21.296 60.95 21.36C61.026 21.384 61.1 21.41 61.172 21.436C61.342 21.494 61.51 21.552 61.676 21.612C61.888 21.686 62.096 21.762 62.304 21.84C62.54 21.926 62.774 22.016 63.006 22.106C63.166 22.168 63.326 22.23 63.484 22.294C63.502 22.302 63.52 22.308 63.536 22.316C63.708 22.384 63.878 22.454 64.046 22.524C64.284 22.622 64.522 22.722 64.756 22.826C64.946 22.908 65.132 22.99 65.318 23.074C65.512 23.162 65.704 23.25 65.894 23.34C66.08 23.426 66.264 23.514 66.446 23.602C66.638 23.696 66.83 23.79 67.018 23.886C67.166 23.96 67.312 24.036 67.456 24.112C67.53 24.148 67.604 24.188 67.678 24.228C67.822 24.302 67.964 24.378 68.104 24.456C68.254 24.536 68.402 24.618 68.548 24.7C68.58 24.718 68.612 24.736 68.642 24.754C68.81 24.85 68.978 24.946 69.142 25.044C69.164 25.054 69.186 25.068 69.208 25.082C69.354 25.166 69.496 25.252 69.638 25.338C69.98 25.546 70.314 25.758 70.642 25.974C70.964 26.186 71.278 26.4 71.584 26.618C71.738 26.726 71.888 26.836 72.038 26.946C72.168 27.042 72.296 27.138 72.422 27.234C72.46 27.264 72.498 27.292 72.536 27.322C72.63 27.394 72.722 27.464 72.812 27.538C72.866 27.58 72.92 27.622 72.972 27.666C73.024 27.706 73.074 27.748 73.126 27.79C73.616 28.19 74.084 28.6 74.526 29.018C74.59 29.078 74.652 29.138 74.714 29.198C75.15 29.618 75.562 30.048 75.946 30.486C76.002 30.548 76.056 30.61 76.11 30.674C76.164 30.736 76.218 30.8 76.27 30.862C77.012 31.748 77.648 32.664 78.172 33.608C78.21 33.676 78.246 33.742 78.282 33.81C78.354 33.946 78.426 34.082 78.492 34.218C78.526 34.286 78.56 34.354 78.592 34.424C78.616 34.472 78.638 34.518 78.66 34.564C78.69 34.63 78.72 34.696 78.75 34.762C78.792 34.858 78.836 34.956 78.876 35.054C78.914 35.142 78.95 35.23 78.984 35.32C79.224 35.922 79.418 36.536 79.564 37.156C79.578 37.21 79.59 37.262 79.602 37.316C79.67 37.622 79.726 37.928 79.77 38.238C79.782 38.312 79.792 38.384 79.8 38.456C79.81 38.53 79.818 38.602 79.826 38.676C79.834 38.748 79.842 38.822 79.848 38.894C79.856 38.98 79.862 39.068 79.868 39.154C79.876 39.246 79.88 39.34 79.884 39.434C79.89 39.528 79.892 39.622 79.894 39.716C79.896 39.736 79.896 39.758 79.896 39.778C79.898 39.852 79.898 39.926 79.898 40H79.9Z" fill="#1D1D1B"/>
<path d="M79.9 40C79.9 27.904 62.036 18.1 40 18.1C17.964 18.1 0.0999756 27.904 0.0999756 40C0.0999756 17.964 17.964 0.0999756 40 0.0999756C62.036 0.0999756 79.9 17.964 79.9 40Z" fill="#DF1E1B"/>
<path d="M42 0.149976C24.73 1.00198 10.348 12.836 5.68998 28.814C2.13998 32.086 0.0999756 35.912 0.0999756 40C0.0999756 17.964 17.964 0.0999756 40 0.0999756C40.67 0.0999756 41.338 0.115976 42 0.149976Z" fill="#E62F2D"/>
<path d="M40 27.6C45.8542 27.6 50.6 23.3915 50.6 18.2C50.6 13.0085 45.8542 8.79999 40 8.79999C34.1457 8.79999 29.4 13.0085 29.4 18.2C29.4 23.3915 34.1457 27.6 40 27.6Z" fill="white"/>
<path d="M48.604 18.2C48.604 22.414 44.752 25.83 40 25.83C35.248 25.83 31.396 22.414 31.396 18.2C31.396 17.964 31.408 17.73 31.432 17.5C31.83 21.386 35.514 24.43 40 24.43C44.486 24.43 48.17 21.386 48.568 17.5C48.592 17.73 48.604 17.964 48.604 18.2Z" fill="#DFDFDE"/>
</g>
<defs>
<radialGradient id="paint0_radial_8_807" cx="0" cy="0" r="1" gradientUnits="userSpaceOnUse" gradientTransform="translate(40 32.5) rotate(90.1618) scale(35.4002 57.3024)">
<stop/>
<stop offset="1" stop-color="#2E2D2C"/>
</radialGradient>
<clipPath id="clip0_8_807">
<rect width="80" height="80" fill="white"/>
</clipPath>
</defs>
</svg>
